GSerif01-AuthorTextRegular03.ufo
<glyph name="B" format="1">
  <advance width="695"/>
  <unicode hex="0042"/>
  <outline>
    <contour>
      <point x="150" y="0" type="line"/>
      <point x="243" y="0" type="line"/>
      <point x="243" y="710" type="line"/>
      <point x="150" y="710" type="line"/>
    </contour>
    <contour>
      <point x="150" y="627" type="curve"/>
      <point x="198" y="653" type="line"/>
      <point x="354" y="653" type="line" smooth="yes"/>
      <point x="456" y="653"/>
      <point x="500" y="608"/>
      <point x="500" y="529" type="curve" smooth="yes"/>
      <point x="500" y="452"/>
      <point x="461" y="400"/>
      <point x="355" y="400" type="curve" smooth="yes"/>
      <point x="199" y="400" type="line"/>
      <point x="199" y="344" type="line"/>
      <point x="363" y="344" type="line" smooth="yes"/>
      <point x="481" y="344"/>
      <point x="529" y="284"/>
      <point x="529" y="200" type="curve" smooth="yes"/>
      <point x="529" y="108"/>
      <point x="477" y="57"/>
      <point x="363" y="57" type="curve" smooth="yes"/>
      <point x="212" y="57" type="line"/>
      <point x="150" y="83" type="line"/>
      <point x="150" y="54"/>
      <point x="114" y="47"/>
      <point x="65" y="47" type="curve" smooth="yes"/>
      <point x="52" y="47" type="line"/>
      <point x="52" y="0" type="line"/>
      <point x="365" y="0" type="line" smooth="yes"/>
      <point x="530" y="0"/>
      <point x="625" y="76"/>
      <point x="625" y="199" type="curve" smooth="yes"/>
      <point x="625" y="313"/>
      <point x="530" y="387"/>
      <point x="356" y="387" type="curve"/>
      <point x="347" y="361" type="line"/>
      <point x="509" y="361"/>
      <point x="594" y="429"/>
      <point x="594" y="530" type="curve" smooth="yes"/>
      <point x="594" y="640"/>
      <point x="508" y="710"/>
      <point x="355" y="710" type="curve" smooth="yes"/>
      <point x="52" y="710" type="line"/>
      <point x="52" y="663" type="line"/>
      <point x="65" y="663" type="line" smooth="yes"/>
      <point x="114" y="663"/>
      <point x="150" y="656"/>
    </contour>
  </outline>
</glyph>
<glyph name="C" format="1">
  <advance width="718"/>
  <unicode hex="0043"/>
  <outline>
    <contour>
      <point x="60" y="355" type="curve" smooth="yes"/>
      <point x="60.0" y="138.0"/>
      <point x="203" y="-10"/>
      <point x="398" y="-10" type="curve" smooth="yes"/>
      <point x="548" y="-10"/>
      <point x="650" y="86"/>
      <point x="683" y="222" type="curve"/>
      <point x="624" y="242" type="line"/>
      <point x="594.9737769577092" y="131.9005332878627"/>
      <point x="520.5898617511521" y="47.0"/>
      <point x="404" y="47" type="curve" smooth="yes"/>
      <point x="256" y="47"/>
      <point x="158.0" y="168.98019801980197"/>
      <point x="158" y="355" type="curve" smooth="yes"/>
      <point x="158.0" y="541.0"/>
      <point x="255" y="663"/>
      <point x="408" y="663" type="curve" smooth="yes"/>
      <point x="504" y="663"/>
      <point x="577" y="609"/>
      <point x="605" y="551" type="curve"/>
      <point x="612" y="590"/>
      <point x="589" y="609"/>
      <point x="562" y="608" type="curve"/>
      <point x="562" y="505" type="line"/>
      <point x="659" y="505" type="line"/>
      <point x="659" y="605" type="line"/>
      <point x="630" y="657"/>
      <point x="536" y="720"/>
      <point x="408" y="720" type="curve" smooth="yes"/>
      <point x="203" y="720"/>
      <point x="60.0" y="569.0"/>
    </contour>
  </outline>
</glyph>
<glyph name="E" format="1">
  <advance width="655"/>
  <unicode hex="0045"/>
  <outline>
    <contour>
      <point x="150" y="0" type="line"/>
      <point x="242" y="0" type="line"/>
      <point x="242" y="710" type="line"/>
      <point x="150" y="710" type="line"/>
    </contour>
    <contour>
      <point x="212" y="391" type="line"/>
      <point x="212" y="335" type="line"/>
      <point x="456" y="335" type="line"/>
      <point x="456" y="391" type="line"/>
    </contour>
    <contour>
      <point x="576" y="710" type="line"/>
      <point x="52" y="710" type="line"/>
      <point x="52" y="663" type="line"/>
      <point x="65" y="663" type="line" smooth="yes"/>
      <point x="114" y="663"/>
      <point x="150" y="656"/>
      <point x="150" y="627" type="curve"/>
      <point x="205" y="653" type="line"/>
      <point x="385" y="653" type="line" smooth="yes"/>
      <point x="471" y="653"/>
      <point x="507" y="646"/>
      <point x="511" y="610" type="curve" smooth="yes"/>
      <point x="520" y="520" type="line"/>
      <point x="576" y="520" type="line"/>
    </contour>
    <contour>
      <point x="595" y="215" type="line"/>
      <point x="539" y="215" type="line"/>
      <point x="527" y="103" type="line" smooth="yes"/>
      <point x="523" y="67"/>
      <point x="486" y="57"/>
      <point x="390" y="57" type="curve" smooth="yes"/>
      <point x="198" y="57" type="line"/>
      <point x="150" y="83" type="line"/>
      <point x="150" y="54"/>
      <point x="114" y="47"/>
      <point x="65" y="47" type="curve" smooth="yes"/>
      <point x="52" y="47" type="line"/>
      <point x="52" y="0" type="line"/>
      <point x="595" y="0" type="line"/>
    </contour>
  </outline>
</glyph>
<glyph name="F" format="1">
  <advance width="629"/>
  <unicode hex="0046"/>
  <outline>
    <contour>
      <point x="150" y="0" type="line"/>
      <point x="243" y="0" type="line"/>
      <point x="243" y="710" type="line"/>
      <point x="150" y="710" type="line"/>
    </contour>
    <contour>
      <point x="213" y="381" type="line"/>
      <point x="213" y="325" type="line"/>
      <point x="509" y="325" type="line"/>
      <point x="509" y="381" type="line"/>
    </contour>
    <contour>
      <point x="596" y="710" type="line"/>
      <point x="52" y="710" type="line"/>
      <point x="52" y="663" type="line"/>
      <point x="65" y="663" type="line"/>
      <point x="114" y="663"/>
      <point x="150" y="656"/>
      <point x="150" y="627" type="curve"/>
      <point x="204" y="653" type="line"/>
      <point x="406" y="653" type="line"/>
      <point x="492" y="653"/>
      <point x="527" y="646"/>
      <point x="531" y="610" type="curve"/>
      <point x="540" y="520" type="line"/>
      <point x="596" y="520" type="line"/>
    </contour>
    <contour>
      <point x="52" y="0" type="line"/>
      <point x="354" y="0" type="line"/>
      <point x="354" y="47" type="line"/>
      <point x="338" y="47" type="line"/>
      <point x="295" y="47"/>
      <point x="243" y="50"/>
      <point x="243" y="57" type="curve"/>
      <point x="150" y="83" type="line"/>
      <point x="150" y="54"/>
      <point x="114" y="47"/>
      <point x="65" y="47" type="curve"/>
      <point x="52" y="47" type="line"/>
    </contour>
  </outline>
</glyph>
<glyph name="I" format="1">
  <advance width="503"/>
  <unicode hex="0049"/>
  <outline>
    <contour>
      <point x="205" y="0" type="line"/>
      <point x="298" y="0" type="line"/>
      <point x="298" y="710" type="line"/>
      <point x="205" y="710" type="line"/>
    </contour>
    <contour>
      <point x="52" y="47" type="line"/>
      <point x="52" y="0" type="line"/>
      <point x="450" y="0" type="line"/>
      <point x="450" y="47" type="line"/>
      <point x="383" y="47" type="line"/>
      <point x="334" y="47"/>
      <point x="298" y="54"/>
      <point x="298" y="83" type="curve"/>
      <point x="205" y="83" type="line"/>
      <point x="205" y="54"/>
      <point x="169" y="47"/>
      <point x="120" y="47" type="curve"/>
    </contour>
    <contour>
      <point x="52" y="710" type="line"/>
      <point x="52" y="663" type="line"/>
      <point x="120" y="663" type="line"/>
      <point x="169" y="663"/>
      <point x="205" y="656"/>
      <point x="205" y="627" type="curve"/>
      <point x="298" y="627" type="line"/>
      <point x="298" y="656"/>
      <point x="334" y="663"/>
      <point x="383" y="663" type="curve"/>
      <point x="450" y="663" type="line"/>
      <point x="450" y="710" type="line"/>
    </contour>
  </outline>
</glyph>
<glyph name="J" format="1">
  <advance width="514"/>
  <unicode hex="004A"/>
  <outline>
    <contour>
      <point x="137" y="710" type="line"/>
      <point x="137" y="663" type="line"/>
      <point x="182" y="663" type="line" smooth="yes"/>
      <point x="231" y="663"/>
      <point x="267" y="656"/>
      <point x="267" y="627" type="curve"/>
      <point x="360" y="627" type="line"/>
      <point x="360" y="656"/>
      <point x="396" y="663"/>
      <point x="445" y="663" type="curve" smooth="yes"/>
      <point x="482" y="663" type="line"/>
      <point x="482" y="710" type="line"/>
    </contour>
    <contour>
      <point x="20" y="8" type="line"/>
      <point x="56" y="-3"/>
      <point x="93" y="-10"/>
      <point x="146" y="-10" type="curve" smooth="yes"/>
      <point x="273" y="-10"/>
      <point x="360" y="58"/>
      <point x="360" y="247" type="curve" smooth="yes"/>
      <point x="360" y="710" type="line"/>
      <point x="267" y="710" type="line"/>
      <point x="267" y="247" type="line" smooth="yes"/>
      <point x="267" y="94"/>
      <point x="222" y="47"/>
      <point x="148" y="47" type="curve" smooth="yes"/>
      <point x="99" y="47"/>
      <point x="57" y="59"/>
      <point x="20" y="71" type="curve"/>
    </contour>
  </outline>
</glyph>
<glyph name="K" format="1">
  <advance width="775"/>
  <unicode hex="004B"/>
  <outline>
    <contour>
      <point x="150" y="0" type="line"/>
      <point x="243" y="0" type="line"/>
      <point x="243" y="710" type="line"/>
      <point x="150" y="710" type="line"/>
    </contour>
    <contour>
      <point x="52" y="47" type="line"/>
      <point x="52" y="0" type="line"/>
      <point x="340" y="0" type="line"/>
      <point x="340" y="47" type="line"/>
      <point x="330" y="47" type="line" smooth="yes"/>
      <point x="292" y="47"/>
      <point x="243" y="50"/>
      <point x="243" y="57" type="curve"/>
      <point x="150" y="83" type="line"/>
      <point x="150" y="54"/>
      <point x="114" y="47"/>
      <point x="65" y="47" type="curve" smooth="yes"/>
    </contour>
    <contour>
      <point x="52" y="710" type="line"/>
      <point x="52" y="663" type="line"/>
      <point x="65" y="663" type="line" smooth="yes"/>
      <point x="114" y="663"/>
      <point x="150" y="656"/>
      <point x="150" y="627" type="curve"/>
      <point x="243" y="653" type="line"/>
      <point x="243" y="660"/>
      <point x="292" y="663"/>
      <point x="330" y="663" type="curve" smooth="yes"/>
      <point x="340" y="663" type="line"/>
      <point x="340" y="710" type="line"/>
    </contour>
    <contour>
      <point x="592.0" y="0.0" type="line"/>
      <point x="708.0" y="3.0" type="line"/>
      <point x="688.0" y="26.0" type="line"/>
      <point x="364.0" y="389.0" type="line"/>
      <point x="349.0" y="345.0" type="line"/>
      <point x="669.0" y="691.0" type="line"/>
      <point x="684.0" y="707.0" type="line"/>
      <point x="602.0" y="710.0" type="line"/>
      <point x="286.0" y="367.0" type="line"/>
      <point x="286.0" y="344.0" type="line"/>
    </contour>
    <contour>
      <point x="750" y="47" type="line"/>
      <point x="731" y="47" type="line" smooth="yes"/>
      <point x="677" y="47"/>
      <point x="663" y="53"/>
      <point x="637" y="83" type="curve"/>
      <point x="541" y="57" type="line"/>
      <point x="541.0" y="50.0"/>
      <point x="492.341176471" y="47"/>
      <point x="453" y="47" type="curve" smooth="yes"/>
      <point x="443" y="47" type="line"/>
      <point x="443" y="0" type="line"/>
      <point x="750" y="0" type="line"/>
    </contour>
    <contour>
      <point x="720" y="710" type="line"/>
      <point x="452" y="710" type="line"/>
      <point x="452" y="663" type="line"/>
      <point x="462" y="663" type="line" smooth="yes"/>
      <point x="500" y="663"/>
      <point x="549" y="660"/>
      <point x="549" y="653" type="curve"/>
      <point x="610" y="627" type="line"/>
      <point x="637" y="656"/>
      <point x="653" y="663"/>
      <point x="701" y="663" type="curve" smooth="yes"/>
      <point x="720" y="663" type="line"/>
    </contour>
  </outline>
</glyph>
<glyph name="L" format="1">
  <advance width="643"/>
  <unicode hex="004C"/>
  <outline>
    <contour>
      <point x="151" y="0" type="line"/>
      <point x="243" y="0" type="line"/>
      <point x="243" y="710" type="line"/>
      <point x="151" y="710" type="line"/>
    </contour>
    <contour>
      <point x="597" y="222" type="line"/>
      <point x="537" y="222" type="line"/>
      <point x="537" y="100" type="line"/>
      <point x="537" y="64"/>
      <point x="498" y="57"/>
      <point x="412" y="57" type="curve"/>
      <point x="198" y="57" type="line"/>
      <point x="151" y="83" type="line"/>
      <point x="151" y="55"/>
      <point x="115" y="48"/>
      <point x="66" y="47" type="curve"/>
      <point x="53" y="47" type="line"/>
      <point x="53" y="0" type="line"/>
      <point x="597" y="0" type="line"/>
    </contour>
    <contour>
      <point x="53" y="710" type="line"/>
      <point x="53" y="663" type="line"/>
      <point x="66" y="663" type="line"/>
      <point x="115" y="661"/>
      <point x="151" y="656"/>
      <point x="151" y="627" type="curve"/>
      <point x="243" y="627" type="line"/>
      <point x="243" y="656"/>
      <point x="279" y="663"/>
      <point x="328" y="663" type="curve"/>
      <point x="341" y="663" type="line"/>
      <point x="341" y="710" type="line"/>
    </contour>
  </outline>
</glyph>
<glyph name="O" format="1">
  <advance width="760"/>
  <unicode hex="004F"/>
  <outline>
    <contour>
      <point x="380" y="-10" type="curve" smooth="yes"/>
      <point x="566" y="-10"/>
      <point x="700" y="135"/>
      <point x="700" y="355" type="curve" smooth="yes"/>
      <point x="700" y="574"/>
      <point x="566" y="720"/>
      <point x="380" y="720" type="curve" smooth="yes"/>
      <point x="193" y="720"/>
      <point x="60" y="575"/>
      <point x="60" y="355" type="curve" smooth="yes"/>
      <point x="60" y="136"/>
      <point x="193" y="-10"/>
    </contour>
    <contour>
      <point x="380" y="47" type="curve" smooth="yes"/>
      <point x="245" y="47"/>
      <point x="160" y="162"/>
      <point x="160" y="355" type="curve" smooth="yes"/>
      <point x="160" y="548"/>
      <point x="245" y="663"/>
      <point x="380" y="663" type="curve" smooth="yes"/>
      <point x="515" y="663"/>
      <point x="600" y="548"/>
      <point x="600" y="355" type="curve" smooth="yes"/>
      <point x="600" y="162"/>
      <point x="515" y="47"/>
    </contour>
  </outline>
</glyph>
<glyph name="P" format="1">
  <advance width="692"/>
  <unicode hex="0050"/>
  <outline>
    <contour>
      <point x="150" y="0" type="line"/>
      <point x="243" y="0" type="line"/>
      <point x="243" y="710" type="line"/>
      <point x="150" y="710" type="line"/>
    </contour>
    <contour>
      <point x="222" y="653" type="line"/>
      <point x="363" y="653" type="line" smooth="yes"/>
      <point x="475" y="653"/>
      <point x="530" y="596"/>
      <point x="530" y="500" type="curve"/>
      <point x="530" y="404"/>
      <point x="475" y="340"/>
      <point x="358" y="340" type="curve" smooth="yes"/>
      <point x="199" y="340" type="line"/>
      <point x="199" y="285" type="line"/>
      <point x="359" y="285" type="line" smooth="yes"/>
      <point x="525" y="285"/>
      <point x="627" y="374"/>
      <point x="627" y="501" type="curve"/>
      <point x="627" y="628"/>
      <point x="530" y="710"/>
      <point x="364" y="710" type="curve"/>
      <point x="52" y="710" type="line"/>
      <point x="52" y="663" type="line"/>
      <point x="65" y="663" type="line" smooth="yes"/>
      <point x="114" y="663"/>
      <point x="150" y="656"/>
      <point x="150" y="627" type="curve"/>
    </contour>
    <contour>
      <point x="342" y="0" type="line"/>
      <point x="342" y="47" type="line"/>
      <point x="325" y="47" type="line" smooth="yes"/>
      <point x="292" y="47"/>
      <point x="243" y="50"/>
      <point x="243" y="57" type="curve"/>
      <point x="150" y="83" type="line"/>
      <point x="150" y="54"/>
      <point x="114" y="47"/>
      <point x="65" y="47" type="curve" smooth="yes"/>
      <point x="52" y="47" type="line"/>
      <point x="52" y="0" type="line"/>
    </contour>
  </outline>
</glyph>
<glyph name="T" format="1">
  <advance width="692"/>
  <unicode hex="0054"/>
  <outline>
    <contour>
      <point x="300" y="0" type="line"/>
      <point x="392" y="0" type="line"/>
      <point x="392" y="710" type="line"/>
      <point x="300" y="710" type="line"/>
    </contour>
    <contour>
      <point x="200" y="0" type="line"/>
      <point x="501" y="0" type="line"/>
      <point x="501" y="57" type="line"/>
      <point x="392" y="57" type="line"/>
      <point x="392" y="57" type="line"/>
      <point x="300" y="57" type="line"/>
      <point x="300" y="57" type="line"/>
      <point x="200" y="57" type="line"/>
    </contour>
    <contour>
      <point x="113" y="653" type="line"/>
      <point x="579" y="653" type="line"/>
      <point x="579" y="653" type="line"/>
      <point x="579" y="524" type="line"/>
      <point x="657" y="524" type="line"/>
      <point x="657" y="710" type="line"/>
      <point x="35" y="710" type="line"/>
      <point x="35" y="524" type="line"/>
      <point x="113" y="524" type="line"/>
      <point x="113" y="653" type="line"/>
    </contour>
  </outline>
</glyph>
<glyph name="V" format="1">
  <advance width="740"/>
  <unicode hex="0056"/>
  <outline>
    <contour>
      <point x="652" y="710" type="line"/>
      <point x="586" y="710" type="line"/>
      <point x="354" y="0" type="line"/>
      <point x="419" y="0" type="line"/>
    </contour>
    <contour>
      <point x="174" y="710" type="line"/>
      <point x="87" y="710" type="line"/>
      <point x="323" y="0" type="line"/>
      <point x="395" y="0" type="line"/>
      <point x="392" y="38" type="line"/>
    </contour>
    <contour>
      <point x="699" y="710" type="line"/>
      <point x="470" y="710" type="line"/>
      <point x="470" y="663" type="line"/>
      <point x="481" y="663" type="line"/>
      <point x="519" y="663"/>
      <point x="567" y="660"/>
      <point x="567" y="653" type="curve"/>
      <point x="625" y="629" type="line"/>
      <point x="636" y="660"/>
      <point x="656" y="663"/>
      <point x="693" y="663" type="curve"/>
      <point x="699" y="663" type="line"/>
    </contour>
    <contour>
      <point x="39" y="710" type="line"/>
      <point x="39" y="663" type="line"/>
      <point x="47" y="663" type="line"/>
      <point x="84" y="663"/>
      <point x="104" y="660"/>
      <point x="115" y="629" type="curve"/>
      <point x="193" y="653" type="line"/>
      <point x="193" y="660"/>
      <point x="241" y="663"/>
      <point x="279" y="663" type="curve"/>
      <point x="295" y="663" type="line"/>
      <point x="295" y="710" type="line"/>
    </contour>
  </outline>
</glyph>
<glyph name="W" format="1">
  <advance width="1054"/>
  <unicode hex="0057"/>
  <outline>
    <contour>
      <point x="168" y="710" type="line"/>
      <point x="78" y="710" type="line"/>
      <point x="274" y="0" type="line"/>
      <point x="349" y="0" type="line"/>
      <point x="348" y="38" type="line"/>
    </contour>
    <contour>
      <point x="20" y="710" type="line"/>
      <point x="20" y="663" type="line"/>
      <point x="27" y="663" type="line" smooth="yes"/>
      <point x="67" y="663"/>
      <point x="91" y="662"/>
      <point x="100" y="630" type="curve"/>
      <point x="183" y="652" type="line"/>
      <point x="183" y="659"/>
      <point x="233" y="663"/>
      <point x="273" y="663" type="curve" smooth="yes"/>
      <point x="288" y="663" type="line"/>
      <point x="288" y="710" type="line"/>
    </contour>
    <contour>
      <point x="976" y="710" type="line"/>
      <point x="914" y="710" type="line"/>
      <point x="722" y="0" type="line"/>
      <point x="784" y="0" type="line"/>
    </contour>
    <contour>
      <point x="1034" y="710" type="line"/>
      <point x="793" y="710" type="line"/>
      <point x="793" y="663" type="line"/>
      <point x="808" y="663" type="line" smooth="yes"/>
      <point x="848" y="663"/>
      <point x="896" y="650"/>
      <point x="896" y="643" type="curve"/>
      <point x="951" y="618" type="line"/>
      <point x="960" y="650"/>
      <point x="986" y="663"/>
      <point x="1026" y="663" type="curve" smooth="yes"/>
      <point x="1034" y="663" type="line"/>
    </contour>
    <contour>
      <point x="591" y="710" type="line"/>
      <point x="491" y="710" type="line"/>
      <point x="312" y="0" type="line"/>
      <point x="374" y="0" type="line"/>
      <point x="535" y="666" type="line"/>
      <point x="516" y="675" type="line"/>
      <point x="684" y="0" type="line"/>
      <point x="759" y="0" type="line"/>
      <point x="758" y="38" type="line"/>
    </contour>
  </outline>
</glyph>
<glyph name="X" format="1">
  <advance width="752"/>
  <unicode hex="0058"/>
  <outline>
    <contour>
      <point x="83" y="707" type="line"/>
      <point x="342" y="337" type="line"/>
      <point x="348" y="333" type="line"/>
      <point x="584" y="0" type="line"/>
      <point x="686" y="3" type="line"/>
      <point x="416" y="384" type="line"/>
      <point x="410" y="387" type="line"/>
      <point x="186" y="710" type="line"/>
    </contour>
    <contour>
      <point x="339" y="380" type="line"/>
      <point x="67" y="3" type="line"/>
      <point x="138" y="0" type="line"/>
      <point x="377" y="335" type="line"/>
    </contour>
    <contour>
      <point x="418" y="352" type="line"/>
      <point x="674" y="708" type="line"/>
      <point x="602" y="710" type="line"/>
      <point x="379" y="394" type="line"/>
    </contour>
    <contour>
      <point x="47" y="710" type="line"/>
      <point x="47" y="663" type="line"/>
      <point x="60" y="663" type="line" smooth="yes"/>
      <point x="101" y="663"/>
      <point x="118" y="659"/>
      <point x="137" y="630" type="curve"/>
      <point x="226" y="652" type="line"/>
      <point x="226" y="659"/>
      <point x="276" y="663"/>
      <point x="316" y="663" type="curve" smooth="yes"/>
      <point x="331" y="663" type="line"/>
      <point x="331" y="710" type="line"/>
    </contour>
    <contour>
      <point x="710" y="710" type="line"/>
      <point x="452" y="710" type="line"/>
      <point x="452" y="663" type="line"/>
      <point x="467" y="663" type="line" smooth="yes"/>
      <point x="507" y="663"/>
      <point x="554" y="649"/>
      <point x="554" y="642" type="curve"/>
      <point x="609" y="618" type="line"/>
      <point x="635" y="653"/>
      <point x="652" y="663"/>
      <point x="694" y="663" type="curve" smooth="yes"/>
      <point x="710" y="663" type="line"/>
    </contour>
    <contour>
      <point x="727" y="0" type="line"/>
      <point x="727" y="47" type="line"/>
      <point x="714" y="47" type="line" smooth="yes"/>
      <point x="670" y="47"/>
      <point x="652" y="50"/>
      <point x="632" y="79" type="curve"/>
      <point x="543" y="58" type="line"/>
      <point x="543" y="51"/>
      <point x="493" y="47"/>
      <point x="453" y="47" type="curve" smooth="yes"/>
      <point x="438" y="47" type="line"/>
      <point x="438" y="0" type="line"/>
    </contour>
    <contour>
      <point x="25" y="0" type="line"/>
      <point x="289" y="0" type="line"/>
      <point x="289" y="47" type="line"/>
      <point x="274" y="47" type="line" smooth="yes"/>
      <point x="234" y="47"/>
      <point x="187" y="61"/>
      <point x="187" y="68" type="curve"/>
      <point x="131" y="92" type="line"/>
      <point x="104" y="55"/>
      <point x="87" y="47"/>
      <point x="41" y="47" type="curve" smooth="yes"/>
      <point x="25" y="47" type="line"/>
    </contour>
  </outline>
</glyph>
<glyph name="Y" format="1">
  <advance width="719"/>
  <unicode hex="0059"/>
  <outline>
    <contour>
      <point x="695" y="710" type="line"/>
      <point x="459" y="710" type="line"/>
      <point x="459" y="653" type="line"/>
      <point x="550" y="653" type="line"/>
      <point x="550" y="653" type="line"/>
      <point x="617" y="653" type="line"/>
      <point x="617" y="653" type="line"/>
      <point x="695" y="653" type="line"/>
    </contour>
    <contour>
      <point x="25" y="710" type="line"/>
      <point x="25" y="653" type="line"/>
      <point x="102" y="653" type="line"/>
      <point x="102" y="653" type="line"/>
      <point x="196" y="653" type="line"/>
      <point x="196" y="653" type="line"/>
      <point x="286" y="653" type="line"/>
      <point x="286" y="710" type="line"/>
    </contour>
    <contour>
      <point x="316" y="0" type="line"/>
      <point x="409" y="0" type="line"/>
      <point x="409" y="319" type="line"/>
      <point x="316" y="319" type="line"/>
    </contour>
    <contour>
      <point x="217" y="57" type="line"/>
      <point x="217" y="0" type="line"/>
      <point x="508" y="0" type="line"/>
      <point x="508" y="57" type="line"/>
      <point x="409" y="57" type="line"/>
      <point x="409" y="57" type="line"/>
      <point x="316" y="57" type="line"/>
      <point x="316" y="57" type="line"/>
    </contour>
    <contour>
      <point x="649" y="708" type="line"/>
      <point x="582" y="710" type="line"/>
      <point x="359" y="320" type="line"/>
      <point x="392" y="330" type="line"/>
      <point x="161" y="710" type="line"/>
      <point x="69" y="708" type="line"/>
      <point x="330" y="274" type="line"/>
      <point x="397" y="272" type="line"/>
    </contour>
  </outline>
</glyph>
<glyph name="a" format="1">
  <advance width="603"/>
  <unicode hex="0061"/>
  <outline>
    <contour>
      <point x="432" y="314" type="line"/>
      <point x="187" y="298"/>
      <point x="67" y="243"/>
      <point x="67" y="132" type="curve" smooth="yes"/>
      <point x="67" y="42"/>
      <point x="143" y="-11"/>
      <point x="239" y="-11" type="curve" smooth="yes"/>
      <point x="332" y="-11"/>
      <point x="398" y="36"/>
      <point x="429" y="111" type="curve"/>
      <point x="462" y="156"/>
      <point x="419" y="143"/>
      <point x="409" y="142" type="curve"/>
      <point x="384" y="85"/>
      <point x="333" y="45"/>
      <point x="261" y="45" type="curve" smooth="yes"/>
      <point x="198" y="45"/>
      <point x="161" y="77"/>
      <point x="161" y="133" type="curve" smooth="yes"/>
      <point x="161" y="207"/>
      <point x="239" y="252"/>
      <point x="431" y="263" type="curve"/>
    </contour>
    <contour>
      <point x="291" y="549" type="curve" smooth="yes"/>
      <point x="190" y="549"/>
      <point x="118" y="502"/>
      <point x="89" y="459" type="curve"/>
      <point x="89" y="365" type="line"/>
      <point x="178" y="365" type="line"/>
      <point x="178" y="469" type="line"/>
      <point x="151" y="469"/>
      <point x="131" y="443"/>
      <point x="136" y="395" type="curve"/>
      <point x="162" y="448"/>
      <point x="203" y="493"/>
      <point x="291" y="493" type="curve" smooth="yes"/>
      <point x="360" y="493"/>
      <point x="404" y="465"/>
      <point x="404" y="381" type="curve" smooth="yes"/>
      <point x="404" y="110" type="line"/>
      <point x="414" y="106" type="line"/>
      <point x="414" y="0" type="line"/>
      <point x="579" y="0" type="line"/>
      <point x="579" y="42" type="line"/>
      <point x="576" y="42" type="line"/>
      <point x="527" y="42"/>
      <point x="491" y="49"/>
      <point x="491" y="78" type="curve"/>
      <point x="491" y="389" type="line" smooth="yes"/>
      <point x="491" y="509"/>
      <point x="395" y="549"/>
    </contour>
  </outline>
</glyph>
<glyph name="d" format="1">
  <advance width="659"/>
  <unicode hex="0064"/>
  <outline>
    <contour>
      <point x="147" y="267" type="curve" smooth="yes"/>
      <point x="147.0" y="400.60180995475116"/>
      <point x="196.0" y="489.0"/>
      <point x="295" y="489" type="curve" smooth="yes"/>
      <point x="373.0" y="489.0"/>
      <point x="433.75345996563175" y="442.5752600801926"/>
      <point x="476" y="344" type="curve"/>
      <point x="515" y="366" type="line"/>
      <point x="453" y="496"/>
      <point x="395" y="549"/>
      <point x="293" y="549" type="curve" smooth="yes"/>
      <point x="145" y="549"/>
      <point x="52" y="434"/>
      <point x="52" y="267" type="curve" smooth="yes"/>
      <point x="52" y="100"/>
      <point x="142" y="-11"/>
      <point x="285" y="-11" type="curve" smooth="yes"/>
      <point x="388" y="-11"/>
      <point x="443" y="50"/>
      <point x="514" y="177" type="curve"/>
      <point x="476" y="200" type="line"/>
      <point x="432.7611040712332" y="103.46665094972994"/>
      <point x="372.0" y="49.0"/>
      <point x="292" y="49" type="curve" smooth="yes"/>
      <point x="195.0" y="49.0"/>
      <point x="147.0" y="134.3917050691244"/>
    </contour>
    <contour>
      <point x="461" y="0" type="line"/>
      <point x="630" y="0" type="line"/>
      <point x="630" y="42" type="line"/>
      <point x="627" y="42" type="line"/>
      <point x="578" y="42"/>
      <point x="542" y="49"/>
      <point x="542" y="78" type="curve"/>
      <point x="542" y="752" type="line"/>
      <point x="360" y="752" type="line"/>
      <point x="360" y="703" type="line"/>
      <point x="377" y="701" type="line"/>
      <point x="429" y="696"/>
      <point x="453" y="685"/>
      <point x="453" y="656" type="curve"/>
      <point x="453" y="115" type="line"/>
      <point x="461" y="112" type="line"/>
    </contour>
  </outline>
</glyph>
<glyph name="e" format="1">
  <advance width="575"/>
  <unicode hex="0065"/>
  <outline>
    <contour>
      <point x="313" y="-12" type="curve" smooth="yes"/>
      <point x="416" y="-12"/>
      <point x="488" y="38"/>
      <point x="527" y="119" type="curve"/>
      <point x="473" y="151" type="line"/>
      <point x="443" y="93"/>
      <point x="392" y="48"/>
      <point x="316" y="48" type="curve" smooth="yes"/>
      <point x="221" y="48"/>
      <point x="145" y="122"/>
      <point x="145" y="264" type="curve" smooth="yes"/>
      <point x="145" y="403"/>
      <point x="212" y="490"/>
      <point x="304" y="490" type="curve" smooth="yes"/>
      <point x="400" y="490"/>
      <point x="431" y="420"/>
      <point x="435" y="279" type="curve"/>
      <point x="462" y="302" type="line"/>
      <point x="114" y="302" type="line"/>
      <point x="115" y="245" type="line"/>
      <point x="530" y="245" type="line"/>
      <point x="531" y="445"/>
      <point x="458" y="550"/>
      <point x="304" y="550" type="curve" smooth="yes"/>
      <point x="160" y="550"/>
      <point x="54" y="434"/>
      <point x="54" y="263" type="curve" smooth="yes"/>
      <point x="54" y="93"/>
      <point x="168" y="-12"/>
    </contour>
  </outline>
</glyph>
<glyph name="f" format="1">
  <advance width="448"/>
  <unicode hex="0066"/>
  <outline>
    <contour>
      <point x="41" y="45" type="line"/>
      <point x="41" y="0" type="line"/>
      <point x="381" y="0" type="line"/>
      <point x="381" y="45" type="line"/>
      <point x="349" y="45" type="line"/>
      <point x="291" y="45"/>
      <point x="247" y="48"/>
      <point x="247" y="55" type="curve"/>
      <point x="158" y="81" type="line"/>
      <point x="158" y="52"/>
      <point x="122" y="45"/>
      <point x="63" y="45" type="curve"/>
    </contour>
    <contour>
      <point x="41" y="540" type="line"/>
      <point x="41" y="485" type="line"/>
      <point x="425" y="485" type="line"/>
      <point x="425" y="540" type="line"/>
    </contour>
    <contour>
      <point x="448" y="620" type="line"/>
      <point x="537" y="620" type="line"/>
      <point x="537" y="704" type="line"/>
      <point x="512" y="744"/>
      <point x="451" y="776"/>
      <point x="365" y="776" type="curve" smooth="yes"/>
      <point x="246" y="776"/>
      <point x="158" y="705"/>
      <point x="158" y="575" type="curve" smooth="yes"/>
      <point x="158" y="0" type="line"/>
      <point x="247" y="0" type="line"/>
      <point x="247" y="575" type="line" smooth="yes"/>
      <point x="247" y="676"/>
      <point x="291" y="720"/>
      <point x="365" y="720" type="curve" smooth="yes"/>
      <point x="419" y="720"/>
      <point x="461" y="699"/>
      <point x="483" y="651" type="curve"/>
      <point x="495" y="685"/>
      <point x="475" y="710"/>
      <point x="448" y="709" type="curve"/>
    </contour>
  </outline>
</glyph>
<glyph name="h" format="1">
  <advance width="686"/>
  <unicode hex="0068"/>
  <outline>
    <contour>
      <point x="47" y="0" type="line"/>
      <point x="302" y="0" type="line"/>
      <point x="302" y="44" type="line"/>
      <point x="301" y="44" type="line"/>
      <point x="273" y="44"/>
      <point x="224" y="47"/>
      <point x="224" y="54" type="curve"/>
      <point x="135" y="80" type="line"/>
      <point x="135" y="51"/>
      <point x="99" y="44"/>
      <point x="50" y="44" type="curve"/>
      <point x="47" y="44" type="line"/>
    </contour>
    <contour>
      <point x="402" y="0" type="line"/>
      <point x="657" y="0" type="line"/>
      <point x="657" y="44" type="line"/>
      <point x="654" y="44" type="line"/>
      <point x="605" y="44"/>
      <point x="569" y="51"/>
      <point x="569" y="80" type="curve"/>
      <point x="480" y="54" type="line"/>
      <point x="480" y="47"/>
      <point x="431" y="44"/>
      <point x="403" y="44" type="curve"/>
      <point x="402" y="44" type="line"/>
    </contour>
    <contour>
      <point x="386" y="487" type="curve" smooth="yes"/>
      <point x="457" y="487"/>
      <point x="480" y="453"/>
      <point x="480" y="378" type="curve" smooth="yes"/>
      <point x="480" y="0" type="line"/>
      <point x="569" y="0" type="line"/>
      <point x="569" y="389" type="line" smooth="yes"/>
      <point x="569" y="500"/>
      <point x="501" y="550"/>
      <point x="401" y="550" type="curve" smooth="yes"/>
      <point x="298" y="550"/>
      <point x="235" y="495"/>
      <point x="165" y="376" type="curve"/>
      <point x="195" y="351" type="line"/>
      <point x="244" y="441"/>
      <point x="309" y="487"/>
    </contour>
    <contour>
      <point x="47" y="750" type="line"/>
      <point x="47" y="701" type="line"/>
      <point x="59" y="699" type="line" smooth="yes"/>
      <point x="111" y="690"/>
      <point x="135" y="683"/>
      <point x="135" y="654" type="curve" smooth="yes"/>
      <point x="135" y="0" type="line"/>
      <point x="224" y="0" type="line"/>
      <point x="224" y="750" type="line"/>
    </contour>
  </outline>
</glyph>
<glyph name="i" format="1">
  <advance width="419"/>
  <unicode hex="0069"/>
  <outline>
    <contour>
      <point x="47" y="0" type="line"/>
      <point x="387" y="0" type="line"/>
      <point x="387" y="42" type="line"/>
      <point x="347" y="42" type="line"/>
      <point x="298" y="42"/>
      <point x="262" y="49"/>
      <point x="262" y="78" type="curve"/>
      <point x="173" y="78" type="line"/>
      <point x="170" y="49"/>
      <point x="134" y="42"/>
      <point x="88" y="42" type="curve"/>
      <point x="47" y="42" type="line"/>
    </contour>
    <contour>
      <point x="47" y="539" type="line"/>
      <point x="47" y="490" type="line"/>
      <point x="97" y="488" type="line"/>
      <point x="149" y="481"/>
      <point x="173" y="472"/>
      <point x="173" y="443" type="curve"/>
      <point x="173" y="0" type="line"/>
      <point x="262" y="0" type="line"/>
      <point x="262" y="539" type="line"/>
    </contour>
    <contour>
      <point x="214" y="642" type="curve" smooth="yes"/>
      <point x="249" y="642"/>
      <point x="275" y="665"/>
      <point x="275" y="703" type="curve" smooth="yes"/>
      <point x="275" y="740"/>
      <point x="249" y="763"/>
      <point x="214" y="763" type="curve" smooth="yes"/>
      <point x="179" y="763"/>
      <point x="153" y="740"/>
      <point x="153" y="703" type="curve" smooth="yes"/>
      <point x="153" y="665"/>
      <point x="179" y="642"/>
    </contour>
  </outline>
</glyph>
<glyph name="m" format="1">
  <advance width="984"/>
  <unicode hex="006D"/>
  <outline>
    <contour>
      <point x="374" y="486" type="curve" smooth="yes"/>
      <point x="436" y="486"/>
      <point x="456" y="452"/>
      <point x="456" y="376" type="curve" smooth="yes"/>
      <point x="456" y="0" type="line"/>
      <point x="545" y="0" type="line"/>
      <point x="545" y="388" type="line"/>
      <point x="545" y="499"/>
      <point x="482" y="549"/>
      <point x="389" y="549" type="curve" smooth="yes"/>
      <point x="291" y="549"/>
      <point x="234" y="492"/>
      <point x="165" y="375" type="curve"/>
      <point x="195" y="350" type="line"/>
      <point x="243" y="439"/>
      <point x="301" y="486"/>
    </contour>
    <contour>
      <point x="695" y="486" type="curve" smooth="yes"/>
      <point x="757" y="486"/>
      <point x="777" y="452"/>
      <point x="777" y="376" type="curve" smooth="yes"/>
      <point x="777" y="0" type="line"/>
      <point x="866" y="0" type="line"/>
      <point x="866" y="388" type="line"/>
      <point x="866" y="499"/>
      <point x="803" y="549"/>
      <point x="710" y="549" type="curve" smooth="yes"/>
      <point x="612" y="549"/>
      <point x="555" y="492"/>
      <point x="486" y="375" type="curve"/>
      <point x="516" y="350" type="line"/>
      <point x="564" y="439"/>
      <point x="623" y="486"/>
    </contour>
    <contour>
      <point x="47" y="0" type="line"/>
      <point x="297" y="0" type="line"/>
      <point x="297" y="42" type="line"/>
      <point x="296" y="42" type="line"/>
      <point x="268" y="42"/>
      <point x="224" y="45"/>
      <point x="224" y="52" type="curve"/>
      <point x="135" y="78" type="line"/>
      <point x="135" y="49"/>
      <point x="99" y="42"/>
      <point x="50" y="42" type="curve"/>
      <point x="47" y="42" type="line"/>
    </contour>
    <contour>
      <point x="47" y="539" type="line"/>
      <point x="47" y="488" type="line"/>
      <point x="59" y="486" type="line"/>
      <point x="111" y="479"/>
      <point x="135" y="469"/>
      <point x="135" y="441" type="curve"/>
      <point x="135" y="0" type="line"/>
      <point x="224" y="0" type="line"/>
      <point x="224" y="422" type="line"/>
      <point x="214" y="435" type="line"/>
      <point x="214" y="539" type="line"/>
    </contour>
    <contour>
      <point x="383" y="0" type="line"/>
      <point x="618" y="0" type="line"/>
      <point x="618" y="42" type="line"/>
      <point x="617" y="42" type="line"/>
      <point x="589" y="42"/>
      <point x="545" y="45"/>
      <point x="545" y="52" type="curve"/>
      <point x="456" y="52" type="line"/>
      <point x="456" y="45"/>
      <point x="412" y="42"/>
      <point x="384" y="42" type="curve"/>
      <point x="383" y="42" type="line"/>
    </contour>
    <contour>
      <point x="955" y="0" type="line"/>
      <point x="955" y="42" type="line"/>
      <point x="951" y="42" type="line"/>
      <point x="902" y="42"/>
      <point x="866" y="49"/>
      <point x="866" y="78" type="curve"/>
      <point x="777" y="52" type="line"/>
      <point x="777" y="46"/>
      <point x="733" y="42"/>
      <point x="705" y="42" type="curve"/>
      <point x="704" y="42" type="line"/>
      <point x="704" y="0" type="line"/>
    </contour>
  </outline>
</glyph>
<glyph name="o" format="1">
  <advance width="619"/>
  <unicode hex="006F"/>
  <outline>
    <contour>
      <point x="309" y="-12" type="curve" smooth="yes"/>
      <point x="463" y="-12"/>
      <point x="565" y="102"/>
      <point x="565" y="268" type="curve" smooth="yes"/>
      <point x="565" y="434"/>
      <point x="463" y="548"/>
      <point x="309" y="548" type="curve" smooth="yes"/>
      <point x="155" y="548"/>
      <point x="54" y="434"/>
      <point x="54" y="268" type="curve" smooth="yes"/>
      <point x="54" y="102"/>
      <point x="155" y="-12"/>
    </contour>
    <contour>
      <point x="309" y="48" type="curve" smooth="yes"/>
      <point x="207" y="48"/>
      <point x="148" y="134"/>
      <point x="148" y="268" type="curve" smooth="yes"/>
      <point x="148" y="403"/>
      <point x="207" y="488"/>
      <point x="309" y="488" type="curve" smooth="yes"/>
      <point x="412" y="488"/>
      <point x="471" y="404"/>
      <point x="471" y="268" type="curve" smooth="yes"/>
      <point x="471" y="134"/>
      <point x="412" y="48"/>
    </contour>
  </outline>
</glyph>
<glyph name="p" format="1">
  <advance width="672"/>
  <unicode hex="0070"/>
  <outline>
    <contour>
      <point x="47" y="540" type="line"/>
      <point x="47" y="491" type="line"/>
      <point x="58" y="489" type="line" smooth="yes"/>
      <point x="110" y="480"/>
      <point x="134" y="473"/>
      <point x="134" y="444" type="curve" smooth="yes"/>
      <point x="134" y="-222" type="line"/>
      <point x="223" y="-222" type="line"/>
      <point x="223" y="421" type="line"/>
      <point x="214" y="433" type="line"/>
      <point x="214" y="540" type="line"/>
    </contour>
    <contour>
      <point x="524" y="274" type="curve" smooth="yes"/>
      <point x="524" y="139"/>
      <point x="478" y="49"/>
      <point x="382" y="49" type="curve" smooth="yes"/>
      <point x="306" y="49"/>
      <point x="245" y="98"/>
      <point x="200" y="194" type="curve"/>
      <point x="161" y="172" type="line"/>
      <point x="226" y="44"/>
      <point x="284" y="-11"/>
      <point x="384" y="-11" type="curve" smooth="yes"/>
      <point x="529" y="-11"/>
      <point x="618" y="106"/>
      <point x="618" y="274" type="curve" smooth="yes"/>
      <point x="618" y="439"/>
      <point x="533" y="550"/>
      <point x="393" y="550" type="curve" smooth="yes"/>
      <point x="292" y="550"/>
      <point x="235" y="489"/>
      <point x="162" y="362" type="curve"/>
      <point x="200" y="339" type="line"/>
      <point x="245" y="436"/>
      <point x="308" y="490"/>
      <point x="387" y="490" type="curve" smooth="yes"/>
      <point x="479" y="490"/>
      <point x="524" y="405"/>
    </contour>
    <contour>
      <point x="47" y="-226" type="line"/>
      <point x="332" y="-226" type="line"/>
      <point x="332" y="-182" type="line"/>
      <point x="320" y="-182" type="line" smooth="yes"/>
      <point x="272" y="-182"/>
      <point x="223" y="-179"/>
      <point x="223" y="-172" type="curve"/>
      <point x="134" y="-146" type="line"/>
      <point x="134" y="-175"/>
      <point x="99" y="-182"/>
      <point x="50" y="-182" type="curve"/>
      <point x="47" y="-182" type="line"/>
    </contour>
  </outline>
</glyph>
<glyph name="q" format="1">
  <advance width="652"/>
  <unicode hex="0071"/>
  <outline>
    <contour>
      <point x="542" y="542" type="line"/>
      <point x="481" y="542" type="line"/>
      <point x="461" y="434" type="line"/>
      <point x="453" y="416" type="line"/>
      <point x="453" y="-230" type="line"/>
      <point x="542" y="-230" type="line"/>
    </contour>
    <contour>
      <point x="632" y="-230" type="line"/>
      <point x="632" y="-190" type="line"/>
      <point x="627" y="-190" type="line"/>
      <point x="578" y="-190"/>
      <point x="542" y="-183"/>
      <point x="542" y="-154" type="curve"/>
      <point x="453" y="-154" type="line"/>
      <point x="453" y="-183"/>
      <point x="420" y="-190"/>
      <point x="368" y="-190" type="curve"/>
      <point x="342" y="-190" type="line"/>
      <point x="342" y="-230" type="line"/>
    </contour>
    <contour>
      <point x="147" y="267" type="curve" smooth="yes"/>
      <point x="147" y="400"/>
      <point x="196" y="488"/>
      <point x="295" y="488" type="curve" smooth="yes"/>
      <point x="373" y="488"/>
      <point x="434" y="442"/>
      <point x="476" y="344" type="curve"/>
      <point x="515" y="366" type="line"/>
      <point x="453" y="496"/>
      <point x="395" y="549"/>
      <point x="293" y="549" type="curve" smooth="yes"/>
      <point x="145" y="549"/>
      <point x="53" y="434"/>
      <point x="53" y="267" type="curve" smooth="yes"/>
      <point x="53" y="100"/>
      <point x="142" y="-11"/>
      <point x="285" y="-11" type="curve" smooth="yes"/>
      <point x="388" y="-11"/>
      <point x="443" y="50"/>
      <point x="514" y="177" type="curve"/>
      <point x="476" y="200" type="line"/>
      <point x="433" y="104"/>
      <point x="372" y="50"/>
      <point x="292" y="50" type="curve" smooth="yes"/>
      <point x="195" y="50"/>
      <point x="147" y="135"/>
    </contour>
  </outline>
</glyph>
<glyph name="r" format="1">
  <advance width="460"/>
  <unicode hex="0072"/>
  <outline>
    <contour>
      <point x="431" y="548" type="line"/>
      <point x="423" y="550"/>
      <point x="411" y="551"/>
      <point x="398" y="551" type="curve" smooth="yes"/>
      <point x="304" y="551"/>
      <point x="244" y="490"/>
      <point x="200" y="393" type="curve"/>
      <point x="211" y="343" type="line"/>
      <point x="254" y="435"/>
      <point x="300" y="467"/>
      <point x="371" y="467" type="curve" smooth="yes"/>
      <point x="391" y="467"/>
      <point x="408" y="465"/>
      <point x="431" y="460" type="curve"/>
    </contour>
    <contour>
      <point x="47" y="0" type="line"/>
      <point x="333" y="0" type="line"/>
      <point x="333" y="44" type="line"/>
      <point x="321" y="44" type="line" smooth="yes"/>
      <point x="273" y="44"/>
      <point x="224" y="47"/>
      <point x="224" y="81" type="curve"/>
      <point x="135" y="80" type="line"/>
      <point x="135" y="51"/>
      <point x="99" y="44"/>
      <point x="50" y="44" type="curve"/>
      <point x="47" y="44" type="line"/>
    </contour>
    <contour>
      <point x="47" y="540" type="line"/>
      <point x="47" y="491" type="line"/>
      <point x="59" y="489" type="line" smooth="yes"/>
      <point x="111" y="480"/>
      <point x="135" y="473"/>
      <point x="135" y="444" type="curve" smooth="yes"/>
      <point x="135" y="0" type="line"/>
      <point x="224" y="0" type="line"/>
      <point x="224" y="394" type="line"/>
      <point x="215" y="401" type="line"/>
      <point x="215" y="540" type="line"/>
    </contour>
  </outline>
</glyph>
<glyph name="s" format="1">
  <advance width="481"/>
  <unicode hex="0073"/>
  <outline>
    <contour>
      <point x="367" y="140" type="curve"/>
      <point x="367" y="79"/>
      <point x="324" y="46"/>
      <point x="252" y="46" type="curve" smooth="yes"/>
      <point x="183" y="46"/>
      <point x="132" y="64"/>
      <point x="101" y="120" type="curve"/>
      <point x="81" y="78"/>
      <point x="85" y="59"/>
      <point x="125" y="44" type="curve"/>
      <point x="125" y="177" type="line"/>
      <point x="36" y="177" type="line"/>
      <point x="36" y="73" type="line"/>
      <point x="79" y="20"/>
      <point x="155" y="-11"/>
      <point x="253" y="-11" type="curve" smooth="yes"/>
      <point x="379" y="-11"/>
      <point x="451" y="58"/>
      <point x="451" y="151" type="curve"/>
      <point x="451" y="352"/>
      <point x="140" y="269"/>
      <point x="140" y="405" type="curve" smooth="yes"/>
      <point x="140" y="454"/>
      <point x="176" y="492"/>
      <point x="245" y="492" type="curve" smooth="yes"/>
      <point x="296" y="492"/>
      <point x="340" y="470"/>
      <point x="363" y="424" type="curve"/>
      <point x="372" y="465"/>
      <point x="361" y="487"/>
      <point x="333" y="484" type="curve"/>
      <point x="333" y="380" type="line"/>
      <point x="420" y="380" type="line"/>
      <point x="420" y="380"/>
      <point x="420" y="474"/>
      <point x="420" y="475" type="curve"/>
      <point x="392" y="517"/>
      <point x="330" y="549"/>
      <point x="244" y="549" type="curve" smooth="yes"/>
      <point x="130" y="549"/>
      <point x="58" y="485"/>
      <point x="58" y="392" type="curve" smooth="yes"/>
      <point x="58" y="184"/>
      <point x="367" y="268"/>
    </contour>
  </outline>
</glyph>
<glyph name="t" format="1">
  <advance width="432"/>
  <unicode hex="0074"/>
  <outline>
    <contour>
      <point x="17" y="482" type="line"/>
      <point x="17" y="534" type="line"/>
      <point x="20" y="534" type="line"/>
      <point x="93" y="534"/>
      <point x="131" y="543"/>
      <point x="131" y="584" type="curve"/>
      <point x="172" y="539" type="line"/>
      <point x="391" y="539" type="line"/>
      <point x="391" y="482" type="line"/>
    </contour>
    <contour>
      <point x="213" y="184" type="line"/>
      <point x="213" y="87"/>
      <point x="259" y="51"/>
      <point x="322" y="51" type="curve" smooth="yes"/>
      <point x="355" y="51"/>
      <point x="380" y="57"/>
      <point x="403" y="64" type="curve"/>
      <point x="403" y="2" type="line"/>
      <point x="381" y="-5"/>
      <point x="350" y="-11"/>
      <point x="314" y="-11" type="curve" smooth="yes"/>
      <point x="220" y="-11"/>
      <point x="124" y="32"/>
      <point x="124" y="183" type="curve" smooth="yes"/>
      <point x="124" y="522" type="line"/>
      <point x="131" y="531" type="line"/>
      <point x="131" y="684" type="line"/>
      <point x="213" y="684" type="line"/>
    </contour>
  </outline>
</glyph>
<glyph name="C.srf" format="1">
  <advance width="758"/>
  <outline>
    <contour>
      <point x="386" y="663" type="curve" smooth="yes"/>
      <point x="495" y="663"/>
      <point x="550" y="595"/>
      <point x="577" y="496" type="curve"/>
      <point x="668" y="496" type="line"/>
      <point x="668" y="710" type="line"/>
      <point x="608" y="710" type="line"/>
      <point x="594" y="545" type="line"/>
      <point x="597" y="541"/>
      <point x="605" y="566"/>
      <point x="616" y="558" type="curve"/>
      <point x="578" y="657"/>
      <point x="499" y="720"/>
      <point x="385" y="720" type="curve" smooth="yes"/>
      <point x="201" y="720"/>
      <point x="60.0" y="569.0"/>
      <point x="60" y="355" type="curve" smooth="yes"/>
      <point x="60.0" y="138.0"/>
      <point x="197" y="-10"/>
      <point x="398" y="-10" type="curve" smooth="yes"/>
      <point x="552" y="-10"/>
      <point x="649" y="90"/>
      <point x="683" y="233" type="curve"/>
      <point x="624" y="253" type="line"/>
      <point x="593.9742483470088" y="135.89956855333452"/>
      <point x="524.6451612903226" y="47.0"/>
      <point x="404" y="47" type="curve" smooth="yes"/>
      <point x="250.0" y="47.0"/>
      <point x="160.0" y="168.98019801999996"/>
      <point x="160" y="355" type="curve" smooth="yes"/>
      <point x="160.0" y="541.01980198"/>
      <point x="254" y="663"/>
    </contour>
  </outline>
</glyph>
<glyph name="E.alt" format="1">
  <advance width="650"/>
  <outline>
    <contour>
      <point x="150" y="0" type="line"/>
      <point x="242" y="0" type="line"/>
      <point x="242" y="710" type="line"/>
      <point x="150" y="710" type="line"/>
    </contour>
    <contour>
      <point x="212" y="391" type="line"/>
      <point x="212" y="335" type="line"/>
      <point x="446" y="335" type="line"/>
      <point x="446" y="391" type="line"/>
    </contour>
    <contour>
      <point x="576" y="710" type="line"/>
      <point x="52" y="710" type="line"/>
      <point x="52" y="663" type="line"/>
      <point x="65" y="663" type="line" smooth="yes"/>
      <point x="114" y="663"/>
      <point x="150" y="656"/>
      <point x="150" y="627" type="curve"/>
      <point x="205" y="653" type="line"/>
      <point x="385" y="653" type="line" smooth="yes"/>
      <point x="471" y="653"/>
      <point x="507" y="646"/>
      <point x="511" y="610" type="curve" smooth="yes"/>
      <point x="520" y="520" type="line"/>
      <point x="576" y="520" type="line"/>
    </contour>
    <contour>
      <point x="595" y="215" type="line"/>
      <point x="539" y="215" type="line"/>
      <point x="527" y="103" type="line" smooth="yes"/>
      <point x="523" y="67"/>
      <point x="486" y="57"/>
      <point x="390" y="57" type="curve" smooth="yes"/>
      <point x="198" y="57" type="line"/>
      <point x="150" y="83" type="line"/>
      <point x="150" y="54"/>
      <point x="114" y="47"/>
      <point x="65" y="47" type="curve" smooth="yes"/>
      <point x="52" y="47" type="line"/>
      <point x="52" y="0" type="line"/>
      <point x="595" y="0" type="line"/>
    </contour>
    <contour>
      <point x="468" y="264" type="line"/>
      <point x="468" y="463" type="line"/>
      <point x="423" y="463" type="line"/>
      <point x="423" y="457" type="line"/>
      <point x="423" y="422"/>
      <point x="413" y="391"/>
      <point x="384" y="391" type="curve"/>
      <point x="384" y="335" type="line"/>
      <point x="413" y="335"/>
      <point x="423" y="304"/>
      <point x="423" y="270" type="curve"/>
      <point x="423" y="264" type="line"/>
    </contour>
  </outline>
</glyph>
<glyph name="G.srf" format="1">
  <advance width="783"/>
  <outline>
    <contour>
      <point x="498" y="353" type="line"/>
      <point x="498" y="306" type="line"/>
      <point x="509" y="306" type="line" smooth="yes"/>
      <point x="558" y="306"/>
      <point x="594" y="299"/>
      <point x="594" y="270" type="curve"/>
      <point x="684" y="270" type="line"/>
      <point x="684" y="299"/>
      <point x="716" y="306"/>
      <point x="759" y="306" type="curve" smooth="yes"/>
      <point x="763" y="306" type="line"/>
      <point x="763" y="353" type="line"/>
    </contour>
    <contour>
      <point x="392" y="720" type="curve" smooth="yes"/>
      <point x="204" y="720"/>
      <point x="60" y="569"/>
      <point x="60" y="355" type="curve" smooth="yes"/>
      <point x="60" y="137"/>
      <point x="196" y="-10"/>
      <point x="406" y="-10" type="curve" smooth="yes"/>
      <point x="534" y="-10"/>
      <point x="646" y="59"/>
      <point x="684" y="119" type="curve"/>
      <point x="684" y="316" type="line"/>
      <point x="594" y="324" type="line"/>
      <point x="594" y="129" type="line"/>
      <point x="576" y="106"/>
      <point x="512" y="52"/>
      <point x="407" y="52" type="curve" smooth="yes"/>
      <point x="250" y="52"/>
      <point x="160" y="167"/>
      <point x="160" y="355" type="curve" smooth="yes"/>
      <point x="160" y="538"/>
      <point x="256" y="658"/>
      <point x="392" y="658" type="curve" smooth="yes"/>
      <point x="508" y="658"/>
      <point x="571" y="592"/>
      <point x="597" y="496" type="curve"/>
      <point x="688" y="496" type="line"/>
      <point x="688" y="710" type="line"/>
      <point x="630" y="710" type="line"/>
      <point x="616" y="545" type="line"/>
      <point x="619" y="541"/>
      <point x="625" y="566"/>
      <point x="636" y="558" type="curve"/>
      <point x="598" y="659"/>
      <point x="510" y="720"/>
    </contour>
  </outline>
</glyph>
<glyph name="K.alt" format="1">
  <advance width="744"/>
  <outline>
    <contour>
      <point x="153" y="0" type="line"/>
      <point x="241" y="0" type="line"/>
      <point x="241" y="710" type="line"/>
      <point x="153" y="710" type="line"/>
    </contour>
    <contour>
      <point x="53" y="70" type="line"/>
      <point x="53" y="0" type="line"/>
      <point x="341" y="0" type="line"/>
      <point x="341" y="70" type="line"/>
      <point x="241" y="70" type="line"/>
      <point x="241" y="70" type="line"/>
      <point x="153" y="70" type="line"/>
      <point x="153" y="70" type="line"/>
    </contour>
    <contour>
      <point x="53" y="710" type="line"/>
      <point x="53" y="640" type="line"/>
      <point x="153" y="640" type="line"/>
      <point x="153" y="640" type="line"/>
      <point x="241" y="640" type="line"/>
      <point x="241" y="640" type="line"/>
      <point x="341" y="640" type="line"/>
      <point x="341" y="710" type="line"/>
    </contour>
    <contour>
      <point x="441" y="70" type="line"/>
      <point x="441" y="0" type="line"/>
      <point x="724" y="0" type="line"/>
      <point x="724" y="70" type="line"/>
      <point x="636" y="70" type="line"/>
      <point x="636" y="70" type="line"/>
      <point x="526" y="70" type="line"/>
      <point x="526" y="70" type="line"/>
    </contour>
    <contour>
      <point x="443" y="710" type="line"/>
      <point x="443" y="640" type="line"/>
      <point x="522" y="640" type="line"/>
      <point x="522" y="640" type="line"/>
      <point x="616" y="640" type="line"/>
      <point x="616" y="640" type="line"/>
      <point x="694" y="640" type="line"/>
      <point x="694" y="710" type="line"/>
    </contour>
    <contour>
      <point x="213" y="395" type="line"/>
      <point x="213" y="327" type="line"/>
      <point x="352" y="327" type="line"/>
      <point x="352" y="395" type="line"/>
    </contour>
    <contour>
      <point x="583" y="0" type="line"/>
      <point x="693" y="0" type="line"/>
      <point x="669" y="30" type="line"/>
      <point x="380" y="384" type="line"/>
      <point x="358" y="339" type="line"/>
      <point x="646" y="676" type="line"/>
      <point x="675" y="710" type="line"/>
      <point x="579" y="710" type="line"/>
      <point x="293" y="368" type="line"/>
      <point x="302" y="346" type="line"/>
    </contour>
  </outline>
</glyph>
<glyph name="Q.alt2" format="1">
  <advance width="760"/>
  <outline>
    <contour>
      <point x="380" y="-10" type="curve" smooth="yes"/>
      <point x="566" y="-10"/>
      <point x="700" y="135"/>
      <point x="700" y="355" type="curve" smooth="yes"/>
      <point x="700" y="574"/>
      <point x="566" y="720"/>
      <point x="380" y="720" type="curve" smooth="yes"/>
      <point x="193" y="720"/>
      <point x="60" y="575"/>
      <point x="60" y="355" type="curve" smooth="yes"/>
      <point x="60" y="136"/>
      <point x="193" y="-10"/>
    </contour>
    <contour>
      <point x="380" y="47" type="curve" smooth="yes"/>
      <point x="245" y="47"/>
      <point x="160" y="162"/>
      <point x="160" y="355" type="curve" smooth="yes"/>
      <point x="160" y="548"/>
      <point x="245" y="663"/>
      <point x="380" y="663" type="curve" smooth="yes"/>
      <point x="515" y="663"/>
      <point x="600" y="548"/>
      <point x="600" y="355" type="curve" smooth="yes"/>
      <point x="600" y="162"/>
      <point x="515" y="47"/>
    </contour>
    <contour>
      <point x="169" y="-185" type="curve"/>
      <point x="223" y="-204" type="line"/>
      <point x="247" y="-145"/>
      <point x="284" y="-108"/>
      <point x="352" y="-108" type="curve" smooth="yes"/>
      <point x="426" y="-108"/>
      <point x="540" y="-147"/>
      <point x="677" y="-208" type="curve"/>
      <point x="708" y="-119" type="line"/>
      <point x="580" y="-73"/>
      <point x="471" y="-47"/>
      <point x="386" y="-47" type="curve" smooth="yes"/>
      <point x="265" y="-47"/>
      <point x="209" y="-94"/>
    </contour>
  </outline>
</glyph>
<glyph name="Q.alt5" format="1">
  <advance width="760"/>
  <outline>
    <contour>
      <point x="380" y="-10" type="curve" smooth="yes"/>
      <point x="566" y="-10"/>
      <point x="700" y="135"/>
      <point x="700" y="355" type="curve" smooth="yes"/>
      <point x="700" y="574"/>
      <point x="566" y="720"/>
      <point x="380" y="720" type="curve" smooth="yes"/>
      <point x="193" y="720"/>
      <point x="60" y="575"/>
      <point x="60" y="355" type="curve" smooth="yes"/>
      <point x="60" y="136"/>
      <point x="193" y="-10"/>
    </contour>
    <contour>
      <point x="380" y="47" type="curve" smooth="yes"/>
      <point x="245" y="47"/>
      <point x="160" y="162"/>
      <point x="160" y="355" type="curve" smooth="yes"/>
      <point x="160" y="548"/>
      <point x="245" y="663"/>
      <point x="380" y="663" type="curve" smooth="yes"/>
      <point x="515" y="663"/>
      <point x="600" y="548"/>
      <point x="600" y="355" type="curve" smooth="yes"/>
      <point x="600" y="162"/>
      <point x="515" y="47"/>
    </contour>
    <contour>
      <point x="341" y="17" type="line"/>
      <point x="425" y="-96"/>
      <point x="516" y="-152"/>
      <point x="679" y="-182" type="curve"/>
      <point x="710" y="-89" type="line"/>
      <point x="571" y="-79"/>
      <point x="463" y="-55"/>
      <point x="390" y="44" type="curve"/>
    </contour>
  </outline>
</glyph>
<glyph name="S.srf" format="1">
  <advance width="631"/>
  <outline>
    <contour>
      <point x="339" y="47" type="curve" smooth="yes"/>
      <point x="242" y="47"/>
      <point x="158" y="106"/>
      <point x="135" y="221" type="curve"/>
      <point x="45" y="221" type="line"/>
      <point x="45" y="0" type="line"/>
      <point x="106" y="0" type="line"/>
      <point x="118" y="169" type="line"/>
      <point x="116" y="174"/>
      <point x="103" y="155"/>
      <point x="93" y="162" type="curve"/>
      <point x="135" y="37"/>
      <point x="239" y="-10"/>
      <point x="343" y="-10" type="curve" smooth="yes"/>
      <point x="467" y="-10"/>
      <point x="571" y="63"/>
      <point x="571" y="194" type="curve" smooth="yes"/>
      <point x="571" y="334"/>
      <point x="457" y="373"/>
      <point x="347" y="404" type="curve" smooth="yes"/>
      <point x="248" y="432"/>
      <point x="156" y="454"/>
      <point x="156" y="541" type="curve" smooth="yes"/>
      <point x="156" y="615"/>
      <point x="206" y="663"/>
      <point x="296" y="663" type="curve" smooth="yes"/>
      <point x="383" y="663"/>
      <point x="448" y="611"/>
      <point x="462" y="524" type="curve"/>
      <point x="545" y="524" type="line"/>
      <point x="545" y="710" type="line"/>
      <point x="487" y="710" type="line"/>
      <point x="476" y="566" type="line"/>
      <point x="487" y="561"/>
      <point x="495" y="570"/>
      <point x="499" y="577" type="curve"/>
      <point x="459" y="690"/>
      <point x="379" y="720"/>
      <point x="287" y="720" type="curve" smooth="yes"/>
      <point x="167" y="720"/>
      <point x="72" y="646"/>
      <point x="72" y="533" type="curve" smooth="yes"/>
      <point x="72" y="395"/>
      <point x="184" y="358"/>
      <point x="291" y="328" type="curve" smooth="yes"/>
      <point x="389" y="301"/>
      <point x="482" y="274"/>
      <point x="482" y="173" type="curve" smooth="yes"/>
      <point x="482" y="86"/>
      <point x="426" y="47"/>
    </contour>
  </outline>
</glyph>
<glyph name="c.alt" format="1">
  <advance width="616"/>
  <outline>
    <contour>
      <point x="572" y="340" type="line"/>
      <point x="552" y="459"/>
      <point x="457" y="537"/>
      <point x="323" y="537" type="curve" smooth="yes"/>
      <point x="174" y="537"/>
      <point x="52" y="423"/>
      <point x="52" y="263" type="curve" smooth="yes"/>
      <point x="52" y="103"/>
      <point x="174" y="-12"/>
      <point x="330" y="-12" type="curve" smooth="yes"/>
      <point x="443" y="-12"/>
      <point x="532" y="47"/>
      <point x="565" y="145" type="curve"/>
      <point x="492" y="145" type="line"/>
      <point x="464" y="85"/>
      <point x="411" y="48"/>
      <point x="332" y="48" type="curve" smooth="yes"/>
      <point x="221" y="48"/>
      <point x="146" y="134"/>
      <point x="146" y="263" type="curve" smooth="yes"/>
      <point x="146" y="392"/>
      <point x="221" y="477"/>
      <point x="323" y="477" type="curve" smooth="yes"/>
      <point x="409" y="477"/>
      <point x="458" y="418"/>
      <point x="473" y="340" type="curve"/>
    </contour>
  </outline>
</glyph>
<glyph name="g.copy_1" format="1">
  <advance width="643"/>
  <outline>
    <contour>
      <point x="307" y="142" type="curve" smooth="yes"/>
      <point x="434" y="142"/>
      <point x="531" y="220"/>
      <point x="531" y="338" type="curve" smooth="yes"/>
      <point x="531" y="456"/>
      <point x="435" y="538"/>
      <point x="307" y="538" type="curve" smooth="yes"/>
      <point x="181" y="538"/>
      <point x="85" y="456"/>
      <point x="85" y="338" type="curve" smooth="yes"/>
      <point x="85" y="220"/>
      <point x="181" y="142"/>
    </contour>
    <contour>
      <point x="288" y="-245" type="curve" smooth="yes"/>
      <point x="357" y="-245" type="line" smooth="yes"/>
      <point x="517" y="-245"/>
      <point x="616" y="-186"/>
      <point x="616" y="-81" type="curve" smooth="yes"/>
      <point x="616" y="9"/>
      <point x="556" y="54"/>
      <point x="447" y="54" type="curve" smooth="yes"/>
      <point x="238" y="54" type="line" smooth="yes"/>
      <point x="188" y="54"/>
      <point x="169" y="69"/>
      <point x="169" y="98" type="curve" smooth="yes"/>
      <point x="169" y="129"/>
      <point x="191" y="154"/>
      <point x="242" y="178" type="curve"/>
      <point x="191" y="208" type="line"/>
      <point x="127" y="175"/>
      <point x="87" y="136"/>
      <point x="87" y="82" type="curve" smooth="yes"/>
      <point x="87" y="32"/>
      <point x="122" y="1"/>
      <point x="177" y="-17" type="curve"/>
      <point x="139" y="-26" type="line"/>
      <point x="446" y="-26" type="line" smooth="yes"/>
      <point x="502" y="-26"/>
      <point x="530" y="-46"/>
      <point x="530" y="-84" type="curve" smooth="yes"/>
      <point x="530" y="-147"/>
      <point x="472" y="-175"/>
      <point x="357" y="-175" type="curve" smooth="yes"/>
      <point x="288" y="-175" type="line" smooth="yes"/>
      <point x="175" y="-175"/>
      <point x="125" y="-148"/>
      <point x="125" y="-98" type="curve" smooth="yes"/>
      <point x="125" y="-53"/>
      <point x="166" y="-24"/>
      <point x="221" y="-4" type="curve"/>
      <point x="179" y="23" type="line"/>
      <point x="105" y="0"/>
      <point x="45" y="-38"/>
      <point x="45" y="-107" type="curve" smooth="yes"/>
      <point x="45" y="-212"/>
      <point x="153" y="-245"/>
    </contour>
    <contour>
      <point x="431" y="453" type="curve"/>
      <point x="461" y="422" type="line"/>
      <point x="489" y="438"/>
      <point x="554" y="451"/>
      <point x="619" y="447" type="curve"/>
      <point x="619" y="541" type="line"/>
      <point x="567" y="547"/>
      <point x="479" y="514"/>
    </contour>
    <contour>
      <point x="171" y="338" type="curve" smooth="yes"/>
      <point x="171" y="417"/>
      <point x="225" y="466"/>
      <point x="307" y="466" type="curve" smooth="yes"/>
      <point x="390" y="466"/>
      <point x="445" y="417"/>
      <point x="445" y="338" type="curve" smooth="yes"/>
      <point x="445" y="259"/>
      <point x="389" y="214"/>
      <point x="307" y="214" type="curve" smooth="yes"/>
      <point x="225" y="214"/>
      <point x="171" y="259"/>
    </contour>
  </outline>
</glyph>
<glyph name="k.alt" format="1">
  <advance width="787"/>
  <outline>
    <contour>
      <point x="10" y="160" type="line"/>
      <point x="10" y="0" type="line"/>
      <point x="382" y="0" type="line"/>
      <point x="382" y="130" type="line"/>
      <point x="345" y="130" type="line"/>
      <point x="345" y="130" type="line"/>
      <point x="60" y="160" type="line"/>
      <point x="60" y="160" type="line"/>
    </contour>
    <contour>
      <point x="10" y="750" type="line"/>
      <point x="10" y="586" type="line"/>
      <point x="60" y="586" type="line"/>
      <point x="60" y="586" type="line"/>
      <point x="60" y="0" type="line"/>
      <point x="345" y="0" type="line"/>
      <point x="345" y="750" type="line"/>
    </contour>
    <contour>
      <point x="777" y="160" type="line"/>
      <point x="732" y="160" type="line"/>
      <point x="732" y="160" type="line"/>
      <point x="451" y="130" type="line"/>
      <point x="451" y="130" type="line"/>
      <point x="410" y="130" type="line"/>
      <point x="410" y="0" type="line"/>
      <point x="777" y="0" type="line"/>
    </contour>
    <contour>
      <point x="337" y="284" type="line"/>
      <point x="552" y="0" type="line"/>
      <point x="695" y="0" type="line"/>
      <point x="766" y="118" type="line"/>
      <point x="621" y="305" type="line"/>
    </contour>
    <contour>
      <point x="746" y="368" type="line"/>
      <point x="746" y="528" type="line"/>
      <point x="404" y="528" type="line"/>
      <point x="404" y="398" type="line"/>
      <point x="450" y="398" type="line"/>
      <point x="450" y="398" type="line"/>
      <point x="701" y="368" type="line"/>
      <point x="701" y="368" type="line"/>
    </contour>
    <contour>
      <point x="612" y="260" type="line"/>
      <point x="729" y="401" type="line"/>
      <point x="699" y="528" type="line"/>
      <point x="561" y="528" type="line"/>
      <point x="360" y="288" type="line"/>
    </contour>
    <contour>
      <point x="434" y="201" type="line"/>
      <point x="434" y="343" type="line"/>
      <point x="189" y="343" type="line"/>
      <point x="189" y="201" type="line"/>
    </contour>
  </outline>
</glyph>
<glyph name="s.ball.copy_1" format="1">
  <advance width="543"/>
  <outline>
    <contour>
      <point x="398" y="570" type="line"/>
      <point x="496" y="410" type="line"/>
      <point x="427" y="368" type="line"/>
      <point x="323" y="528" type="line"/>
    </contour>
    <contour>
      <point x="116" y="204" type="curve"/>
      <point x="161" y="102"/>
      <point x="208" y="61"/>
      <point x="305" y="61" type="curve" smooth="yes"/>
      <point x="372" y="61"/>
      <point x="415" y="84"/>
      <point x="415" y="137" type="curve" smooth="yes"/>
      <point x="415" y="256"/>
      <point x="73" y="186"/>
      <point x="73" y="388" type="curve" smooth="yes"/>
      <point x="73" y="477"/>
      <point x="153" y="538"/>
      <point x="262" y="538" type="curve" smooth="yes"/>
      <point x="357" y="538"/>
      <point x="428" y="469"/>
      <point x="453" y="396" type="curve"/>
      <point x="432" y="385"/>
      <point x="421" y="385"/>
      <point x="427" y="368" type="curve"/>
      <point x="385" y="433"/>
      <point x="358" y="467"/>
      <point x="269" y="467" type="curve" smooth="yes"/>
      <point x="198" y="467"/>
      <point x="156" y="439"/>
      <point x="156" y="394" type="curve" smooth="yes"/>
      <point x="156" y="269"/>
      <point x="500" y="343"/>
      <point x="500" y="143" type="curve" smooth="yes"/>
      <point x="500" y="50"/>
      <point x="426" y="-11"/>
      <point x="312" y="-11" type="curve" smooth="yes"/>
      <point x="174" y="-11"/>
      <point x="121" y="56"/>
      <point x="90" y="156" type="curve"/>
      <point x="92" y="150"/>
      <point x="97" y="173"/>
    </contour>
    <contour>
      <point x="102" y="-18" type="line"/>
      <point x="36" y="177" type="line"/>
      <point x="116" y="204" type="line"/>
      <point x="200" y="12" type="line"/>
    </contour>
  </outline>
</glyph>
